<?xml version="1.0" encoding="UTF-8" standalone="no"?>
<!-- Created with Inkscape (http://www.inkscape.org/) -->

<svg
   width="397.94995"
   height="285.29996"
   viewBox="0 0 397.94995 285.29996"
   version="1.1"
   id="svg1"
   xmlns="http://www.w3.org/2000/svg"
   xmlns:svg="http://www.w3.org/2000/svg">
  <defs
     id="defs1" />
  <g
     id="layer1"
     style="display:inline"
     transform="translate(-49.999999,-70.000001)">
    <path
       id="path1"
       d="m 175.08093,144.98381 199.83815,-39.96763 c 13.89483,-2.77896 22.56586,7.55914 19.44176,23.17961 l -38.72168,193.60842 c -3.12409,15.62046 -16.82525,30.43301 -30.72008,33.21197 l -199.83815,39.96763 c -13.89484,2.77897 -22.56586,-7.55914 -19.44177,-23.1796 l 38.72168,-193.60842 c 3.1241,-15.62047 16.82525,-30.43301 30.72009,-33.21198 z"
       transform="rotate(45,246.28867,250.08768)"
       style="display:none;fill:#333333" />
    <path
       id="path3"
       d="m 175.08093,144.98381 199.83815,-39.96763 c 13.89483,-2.77896 22.56586,7.55914 19.44176,23.17961 l -38.72168,193.60842 c -3.12409,15.62046 -16.82525,30.43301 -30.72008,33.21197 l -199.83815,39.96763 c -13.89484,2.77897 -22.56586,-7.55914 -19.44177,-23.1796 l 38.72168,-193.60842 c 3.1241,-15.62047 16.82525,-30.43301 30.72009,-33.21198 z"
       transform="rotate(45,258.35974,245.08768)"
       style="display:none;fill:#4d4d4d" />
    <path
       id="path7"
       d="m 175.08093,144.98381 199.83815,-39.96763 c 13.89483,-2.77896 22.56586,7.55914 19.44176,23.17961 l -38.72168,193.60842 c -3.12409,15.62046 -16.82525,30.43301 -30.72008,33.21197 l -199.83815,39.96763 c -13.89484,2.77897 -22.56586,-7.55914 -19.44177,-23.1796 l 38.72168,-193.60842 c 3.1241,-15.62047 16.82525,-30.43301 30.72009,-33.21198 z"
       transform="rotate(45,270.43081,240.08768)"
       style="display:none;fill:#666666" />
    <path
       id="path8"
       d="m 175.08093,144.98381 199.83815,-39.96763 c 13.89483,-2.77896 22.56586,7.55914 19.44176,23.17961 l -38.72168,193.60842 c -3.12409,15.62046 -16.82525,30.43301 -30.72008,33.21197 l -199.83815,39.96763 c -13.89484,2.77897 -22.56586,-7.55914 -19.44177,-23.1796 l 38.72168,-193.60842 c 3.1241,-15.62047 16.82525,-30.43301 30.72009,-33.21198 z"
       transform="rotate(45,282.50188,235.08768)"
       style="fill:#585858;fill-opacity:1" />
    <path
       id="path10"
       d="m 175.08093,144.98381 199.83815,-39.96763 c 13.89483,-2.77896 22.56586,7.55914 19.44176,23.17961 l -38.72168,193.60842 c -3.12409,15.62046 -16.82525,30.43301 -30.72008,33.21197 l -199.83815,39.96763 c -13.89484,2.77897 -22.56586,-7.55914 -19.44177,-23.1796 l 38.72168,-193.60842 c 3.1241,-15.62047 16.82525,-30.43301 30.72009,-33.21198 z"
       transform="rotate(45,294.57294,230.08768)"
       style="fill:#6c6c6c;fill-opacity:1" />
    <path
       id="path12"
       d="m 175.08093,144.98381 199.83815,-39.96763 c 13.89483,-2.77896 22.56586,7.55914 19.44176,23.17961 l -38.72168,193.60842 c -3.12409,15.62046 -16.82525,30.43301 -30.72008,33.21197 l -199.83815,39.96763 c -13.89484,2.77897 -22.56586,-7.55914 -19.44177,-23.1796 l 38.72168,-193.60842 c 3.1241,-15.62047 16.82525,-30.43301 30.72009,-33.21198 z"
       transform="rotate(45,306.64401,225.08768)"
       style="fill:#808080;fill-opacity:1" />
  </g>
  <g
     id="layer2"
     transform="matrix(1.0137363,0,0,1,-50.648356,-62.000001)">
    <path
       id="path15"
       style="display:none;fill:#666666"
       d="m 161,160 h 178 c 17.174,0 32.5757,12.60563 34.59155,28.73239 l 2.44077,19.52614 C 378.19998,225.59982 365.02183,240 346.41667,240 l -192.83334,0 c -18.60516,0 -31.78331,-14.40018 -29.61565,-31.74147 l 2.44077,-19.52614 C 128.4243,172.60563 143.826,160 161,160 Z"
       transform="translate(-3.7344205)" />
    <path
       id="path17"
       style="display:none;fill:#999999"
       d="m 161,160 h 178 c 17.174,0 32.5757,12.60563 34.59155,28.73239 l 2.44077,19.52614 C 378.19998,225.59982 365.02183,240 346.41667,240 l -192.83334,0 c -18.60516,0 -31.78331,-14.40018 -29.61565,-31.74147 l 2.44077,-19.52614 C 128.4243,172.60563 143.826,160 161,160 Z"
       transform="translate(-3.7344205,-5)" />
    <path
       id="path19"
       style="display:inline;fill:#b3b3b3"
       d="m 161,160 h 178 c 17.174,0 32.5757,12.60563 34.59155,28.73239 l 2.44077,19.52614 C 378.19998,225.59982 365.02183,240 346.41667,240 l -192.83334,0 c -18.60516,0 -31.78331,-14.40018 -29.61565,-31.74147 l 2.44077,-19.52614 C 128.4243,172.60563 143.826,160 161,160 Z"
       transform="translate(-3.7344205,-10)" />
    <path
       id="path21"
       style="fill:#cccccc"
       d="m 161,160 h 178 c 17.174,0 32.5757,12.60563 34.59155,28.73239 l 2.44077,19.52614 C 378.19998,225.59982 365.02183,240 346.41667,240 l -192.83334,0 c -18.60516,0 -31.78331,-14.40018 -29.61565,-31.74147 l 2.44077,-19.52614 C 128.4243,172.60563 143.826,160 161,160 Z"
       transform="translate(-3.7344205,-15)" />
    <path
       id="path23"
       style="fill:#e6e6e6"
       d="m 161,160 h 178 c 17.174,0 32.5757,12.60563 34.59155,28.73239 l 2.44077,19.52614 C 378.19998,225.59982 365.02183,240 346.41667,240 l -192.83334,0 c -18.60516,0 -31.78331,-14.40018 -29.61565,-31.74147 l 2.44077,-19.52614 C 128.4243,172.60563 143.826,160 161,160 Z"
       transform="translate(-3.7344205,-20)" />
  </g>
  <g
     id="layer3"
     transform="translate(-64,-58.000001)">
    <g
       id="g32"
       transform="matrix(0.98747179,0,0,1,3.7539494,0)">
      <path
         id="path25"
         style="fill:#870853;fill-opacity:1"
         d="M 212.30769,180.38462 C 213.74113,196.15245 199.32997,210 180,210 160.67003,210 146.25887,196.15245 147.69231,180.38462 149.00892,165.90193 163.43146,155 180,155 c 16.56854,0 30.99108,10.90193 32.30769,25.38462 z"
         transform="translate(-7.5940111,-5)" />
      <path
         id="path26"
         style="fill:#b8160a;fill-opacity:1"
         d="M 212.30769,180.38462 C 213.74113,196.15245 199.32997,210 180,210 160.67003,210 146.25887,196.15245 147.69231,180.38462 149.00892,165.90193 163.43146,155 180,155 c 16.56854,0 30.99108,10.90193 32.30769,25.38462 z"
         transform="translate(-7.5940111,-9)" />
      <path
         id="path28"
         style="fill:#e91b0c;fill-opacity:1"
         d="M 212.30769,180.38462 C 213.74113,196.15245 199.32997,210 180,210 160.67003,210 146.25887,196.15245 147.69231,180.38462 149.00892,165.90193 163.43146,155 180,155 c 16.56854,0 30.99108,10.90193 32.30769,25.38462 z"
         transform="translate(-7.5940111,-13)" />
      <path
         id="path30"
         style="fill:#f44336;fill-opacity:1"
         d="M 212.30769,180.38462 C 213.74113,196.15245 199.32997,210 180,210 160.67003,210 146.25887,196.15245 147.69231,180.38462 149.00892,165.90193 163.43146,155 180,155 c 16.56854,0 30.99108,10.90193 32.30769,25.38462 z"
         transform="translate(-7.5940111,-17)" />
    </g>
    <g
       id="g35"
       transform="matrix(0.98747179,0,0,1,92.753949,0)">
      <path
         id="path32"
         style="fill:#664200;fill-opacity:1"
         d="M 212.30769,180.38462 C 213.74113,196.15245 199.32997,210 180,210 160.67003,210 146.25887,196.15245 147.69231,180.38462 149.00892,165.90193 163.43146,155 180,155 c 16.56854,0 30.99108,10.90193 32.30769,25.38462 z"
         transform="translate(-7.5940111,-5)" />
      <path
         id="path33"
         style="fill:#996300;fill-opacity:1"
         d="M 212.30769,180.38462 C 213.74113,196.15245 199.32997,210 180,210 160.67003,210 146.25887,196.15245 147.69231,180.38462 149.00892,165.90193 163.43146,155 180,155 c 16.56854,0 30.99108,10.90193 32.30769,25.38462 z"
         transform="translate(-7.5940111,-9)" />
      <path
         id="path34"
         style="fill:#cc8400;fill-opacity:1"
         d="M 212.30769,180.38462 C 213.74113,196.15245 199.32997,210 180,210 160.67003,210 146.25887,196.15245 147.69231,180.38462 149.00892,165.90193 163.43146,155 180,155 c 16.56854,0 30.99108,10.90193 32.30769,25.38462 z"
         transform="translate(-7.5940111,-13)" />
      <path
         id="path35"
         style="fill:#ffa500;fill-opacity:1"
         d="M 212.30769,180.38462 C 213.74113,196.15245 199.32997,210 180,210 160.67003,210 146.25887,196.15245 147.69231,180.38462 149.00892,165.90193 163.43146,155 180,155 c 16.56854,0 30.99108,10.90193 32.30769,25.38462 z"
         transform="translate(-7.5940111,-17)" />
    </g>
    <g
       id="g45"
       transform="matrix(0.98747179,0,0,1,181.75395,0)">
      <path
         id="path42"
         style="fill:#006600;fill-opacity:1"
         d="M 212.30769,180.38462 C 213.74113,196.15245 199.32997,210 180,210 160.67003,210 146.25887,196.15245 147.69231,180.38462 149.00892,165.90193 163.43146,155 180,155 c 16.56854,0 30.99108,10.90193 32.30769,25.38462 z"
         transform="translate(-7.5940111,-5)" />
      <path
         id="path43"
         style="fill:#009900;fill-opacity:1"
         d="M 212.30769,180.38462 C 213.74113,196.15245 199.32997,210 180,210 160.67003,210 146.25887,196.15245 147.69231,180.38462 149.00892,165.90193 163.43146,155 180,155 c 16.56854,0 30.99108,10.90193 32.30769,25.38462 z"
         transform="translate(-7.5940111,-9)" />
      <path
         id="path44"
         style="fill:#00cc00;fill-opacity:1"
         d="M 212.30769,180.38462 C 213.74113,196.15245 199.32997,210 180,210 160.67003,210 146.25887,196.15245 147.69231,180.38462 149.00892,165.90193 163.43146,155 180,155 c 16.56854,0 30.99108,10.90193 32.30769,25.38462 z"
         transform="translate(-7.5940111,-13)" />
      <path
         id="path45"
         style="fill:#33ff33;fill-opacity:1"
         d="M 212.30769,180.38462 C 213.74113,196.15245 199.32997,210 180,210 160.67003,210 146.25887,196.15245 147.69231,180.38462 149.00892,165.90193 163.43146,155 180,155 c 16.56854,0 30.99108,10.90193 32.30769,25.38462 z"
         transform="translate(-7.5940111,-17)" />
    </g>
  </g>
</svg>
