<svg width="110" xmlns="http://www.w3.org/2000/svg" height="110" fill="none"><path d="M60 10c0-5.519 4.481-10 10-10h30c5.519 0 10 4.481 10 10v30c0 5.519-4.481 10-10 10H70c-5.519 0-10-4.481-10-10V10ZM0 70v30c0 5.519 4.481 10 10 10h30c5.519 0 10-4.481 10-10V70c0-5.519-4.481-10-10-10H10C4.481 60 0 64.481 0 70Zm0-60v30c0 5.519 4.481 10 10 10h30c5.519 0 10-4.481 10-10V10c0-5.519-4.481-10-10-10H10C4.481 0 0 4.481 0 10Zm60 60v30c0 5.519 4.481 10 10 10h30c5.519 0 10-4.481 10-10V70c0-5.519-4.481-10-10-10H70c-5.519 0-10 4.481-10 10Z" style="fill: rgb(60, 162, 249); fill-opacity: 1;" class="fills"/></svg>